<svg xmlns="http://www.w3.org/2000/svg" xmlns:xlink="http://www.w3.org/1999/xlink" width="100" zoomAndPan="magnify" viewBox="0 0 75 74.999997" height="100" preserveAspectRatio="xMidYMid meet" version="1.0"><defs><clipPath id="ec79801696"><path d="M 30 46.8125 L 73.648438 46.8125 L 73.648438 75 L 30 75 Z M 30 46.8125 " clip-rule="nonzero"/></clipPath></defs><path fill="#b0cedd" d="M 76.667969 36.316406 C 76.660156 33.390625 76.515625 31.253906 75.324219 28.644531 C 73.480469 24.609375 71.882812 21 69.207031 17.488281 C 67.652344 15.453125 66.105469 13.414062 64.550781 11.378906 C 64.058594 10.726562 63.480469 10.144531 62.855469 9.601562 C 62.042969 8.902344 61.148438 8.277344 60.238281 7.675781 C 60.210938 7.65625 60.195312 7.640625 60.175781 7.628906 C 57.878906 5.855469 55.53125 4.019531 52.9375 2.703125 C 52.34375 2.402344 51.742188 2.148438 51.136719 1.9375 C 50.726562 1.726562 50.316406 1.519531 49.90625 1.308594 C 48.441406 0.558594 46.957031 0.664062 45.3125 0.566406 C 42.550781 0.398438 39.804688 0.425781 37.054688 0.675781 C 36.824219 0.695312 36.6875 0.863281 36.644531 1.050781 C 36.371094 1.066406 36.101562 1.074219 35.824219 1.074219 C 33.707031 1.089844 31.589844 1.128906 29.5 1.179688 C 26.890625 1.328125 22.582031 1.179688 20.433594 1.792969 L 19.820312 2.714844 C 13.824219 8.398438 6.753906 13.625 1.84375 20.234375 L 1.230469 20.539062 C 1.191406 22.394531 1.023438 24.238281 0.785156 26.078125 C 0.609375 26.105469 0.441406 26.214844 0.378906 26.4375 C -0.402344 29.101562 -1.152344 31.746094 -1.65625 34.472656 C -2.039062 36.539062 -1.605469 38.746094 -1.375 40.851562 C -1.382812 40.894531 -1.382812 40.933594 -1.386719 40.972656 L -1.234375 42.359375 C -1.234375 42.367188 -1.234375 42.367188 -1.226562 42.375 C -1.132812 43.3125 -1.023438 44.183594 -0.84375 45.015625 C -0.5625 46.363281 -0.121094 47.632812 0.652344 49.015625 C 2.816406 52.890625 4.703125 56.351562 7.652344 59.640625 C 9.367188 61.542969 11.074219 63.449219 12.789062 65.355469 C 15.039062 67.863281 18.589844 69.132812 21.398438 70.976562 C 22.070312 71.414062 22.753906 71.796875 23.453125 72.148438 C 24.515625 72.789062 25.597656 73.316406 26.703125 73.644531 C 26.824219 73.683594 26.945312 73.707031 27.066406 73.742188 C 27.445312 73.894531 27.824219 74.046875 28.199219 74.203125 C 29.722656 74.828125 31.195312 74.605469 32.839844 74.566406 C 35.433594 74.507812 38 74.285156 40.558594 73.867188 L 42.101562 74.007812 C 48.421875 72.90625 54.742188 69.230469 60.730469 66.484375 C 61.441406 66.167969 62.144531 65.851562 62.84375 65.558594 L 63.304688 65.25 C 63.347656 65.1875 63.398438 65.128906 63.445312 65.066406 C 66.410156 61.214844 73.570312 51.683594 73.761719 51.171875 C 74.152344 50.160156 74.535156 49.140625 74.90625 48.125 C 75.476562 46.546875 76 44.953125 76.441406 43.328125 C 77.050781 41.09375 76.679688 38.617188 76.667969 36.316406 " fill-opacity="1" fill-rule="nonzero"/><path fill="#92b8cb" d="M 72.164062 52.074219 C 71.550781 51.734375 70.953125 51.476562 70.367188 51.292969 C 69.886719 51.296875 69.414062 51.3125 68.945312 51.363281 C 67.449219 51.535156 66.289062 52.105469 64.925781 52.699219 C 63.832031 53.171875 62.894531 53.203125 62.105469 52.175781 C 61.746094 51.699219 61.402344 51.207031 61.058594 50.714844 C 59.925781 49.890625 58.976562 48.578125 58.164062 47.671875 C 57.410156 46.832031 56.578125 46.070312 55.703125 45.363281 C 54.851562 45.015625 53.960938 44.960938 53.054688 45.535156 C 52.125 46.117188 51.398438 47.0625 50.4375 47.582031 C 49.789062 47.933594 49.085938 48.074219 48.371094 47.785156 C 47.972656 47.625 47.457031 47.273438 47.046875 47.199219 C 46.433594 47.078125 46.09375 47.238281 45.542969 47.273438 C 44.347656 47.363281 43.246094 47.121094 42.636719 46.007812 C 41.851562 44.5625 42.796875 42.625 43.253906 41.261719 C 43.699219 39.898438 44.429688 38.253906 44.4375 36.808594 C 44.441406 36.257812 44.410156 35.714844 44.421875 35.171875 C 44.410156 35.132812 44.398438 35.089844 44.386719 35.050781 C 43.785156 33.660156 42.765625 32.542969 41.914062 31.300781 C 41.175781 30.21875 41.902344 29.234375 40.894531 28.222656 C 39.582031 26.910156 37.839844 27.371094 36.496094 28.3125 C 36.171875 28.542969 35.863281 28.796875 35.570312 29.066406 C 35.199219 29.503906 34.867188 29.976562 34.578125 30.53125 C 33.996094 31.660156 33.464844 32.859375 32.710938 33.878906 C 31.886719 34.980469 29.996094 36.398438 28.863281 34.691406 C 27.746094 32.996094 29.195312 30.457031 30.152344 29.011719 C 30.765625 28.070312 31.507812 27.371094 32.398438 26.679688 C 33.644531 25.722656 35.550781 24.621094 35.921875 22.945312 C 36.585938 19.96875 33.625 17.195312 35.421875 14.320312 C 36.527344 12.550781 39.214844 12.453125 41.03125 12.140625 C 42.550781 11.878906 43.789062 11.492188 45.011719 10.527344 C 45.242188 10.34375 45.519531 10.125 45.800781 9.882812 C 45.855469 9.792969 45.914062 9.710938 45.972656 9.625 C 46.507812 8.84375 47.105469 8.308594 47.609375 7.804688 C 48.019531 7.042969 48.128906 6.222656 47.589844 5.429688 C 46.785156 4.234375 45.234375 4.4375 44.117188 3.738281 C 43.609375 3.425781 43.203125 3.050781 42.851562 2.5625 C 42.230469 1.699219 40.929688 0.679688 40.054688 0.484375 C 38.429688 0.476562 36.804688 0.472656 35.183594 0.492188 C 33.066406 0.507812 31.589844 1.128906 29.5 1.179688 C 26.886719 1.328125 22.582031 1.179688 20.433594 1.792969 L 19.820312 2.714844 C 13.824219 8.398438 6.753906 13.625 1.84375 20.234375 L 1.230469 20.539062 C 1.191406 22.394531 1.023438 24.238281 0.785156 26.078125 C 0.609375 26.105469 0.441406 26.214844 0.378906 26.4375 C -0.402344 29.101562 -1.152344 31.746094 -1.65625 34.472656 C -2.039062 36.539062 -1.605469 38.746094 -1.375 40.851562 C -1.382812 40.894531 -1.382812 40.933594 -1.386719 40.972656 L -1.234375 42.359375 C -1.234375 42.367188 -1.234375 42.367188 -1.226562 42.375 C -1.132812 43.3125 -1.023438 44.183594 -0.84375 45.015625 C 0.925781 43.78125 1.816406 40.578125 2.085938 38.59375 C 2.5 35.613281 3.300781 32.738281 4.703125 30.058594 C 5.9375 27.679688 7.652344 24.914062 9.679688 23.105469 C 11.363281 21.609375 12.316406 22.777344 12.671875 24.609375 C 12.839844 25.457031 12.6875 27.121094 13.875 27.328125 C 14.246094 27.398438 14.714844 27.261719 15.074219 27.371094 C 15.667969 27.558594 15.878906 28.183594 15.929688 28.765625 C 16.058594 30.269531 16.683594 31.101562 16.484375 32.644531 C 16.261719 34.460938 15.507812 36.234375 15.511719 38.082031 C 15.519531 40.4375 16.171875 42.9375 17.335938 45.175781 C 17.445312 45.1875 17.546875 45.253906 17.582031 45.394531 C 17.625 45.574219 17.683594 45.738281 17.738281 45.90625 C 18.464844 47.132812 19.339844 48.261719 20.351562 49.21875 C 22.742188 50.855469 26.121094 51.496094 28.738281 51.804688 C 30.253906 51.984375 31.78125 52.128906 33.3125 52.144531 C 34.375 52.148438 35.421875 51.925781 36.484375 52.015625 C 37.394531 52.097656 38.230469 52.949219 37.980469 53.871094 C 37.667969 55.023438 35.859375 55.695312 34.890625 56.066406 C 33.363281 56.667969 31.789062 56.800781 30.226562 57.28125 C 28.21875 57.90625 26.996094 59.097656 26.332031 60.582031 C 25.984375 63.113281 27.265625 65.988281 29.628906 67.425781 C 31.835938 68.769531 34.308594 69.0625 36.835938 69.320312 C 38.378906 69.472656 39.957031 69.984375 41.5 69.730469 C 45.007812 69.132812 48.519531 68.546875 52.023438 67.957031 C 54.929688 67.464844 57.828125 66.980469 60.730469 66.488281 C 61.441406 66.167969 62.144531 65.851562 62.84375 65.558594 L 63.304688 65.25 C 63.347656 65.1875 63.398438 65.128906 63.445312 65.066406 C 66.414062 61.214844 69.074219 57.082031 71.675781 52.898438 C 71.851562 52.628906 72.015625 52.355469 72.183594 52.085938 C 72.175781 52.078125 72.167969 52.078125 72.164062 52.074219 " fill-opacity="1" fill-rule="nonzero"/><path fill="#849948" d="M 18.507812 27.308594 C 18.609375 27.964844 19.421875 28.121094 19.917969 27.878906 C 21.40625 27.164062 22.507812 26.167969 23.460938 24.914062 C 23.59375 25.070312 23.621094 25.222656 23.664062 25.550781 C 23.839844 26.832031 24.171875 27.953125 24.683594 29.136719 C 24.941406 29.734375 25.777344 29.699219 26.191406 29.328125 C 28.351562 27.394531 29.980469 24.691406 32.394531 23.082031 C 32.523438 22.996094 32.621094 22.894531 32.6875 22.785156 C 32.84375 22.582031 32.914062 22.316406 32.835938 22 C 32.128906 19.203125 31.027344 16.570312 30.957031 13.675781 C 30.96875 13.667969 30.980469 13.664062 30.988281 13.65625 C 32.398438 12.386719 33.992188 11.632812 35.742188 10.941406 C 38.609375 9.808594 41.582031 9.039062 44.226562 7.410156 C 45.097656 6.875 44.660156 5.71875 43.746094 5.621094 C 39.75 5.195312 38.625 0.0820312 34.554688 0.125 C 30.027344 0.175781 25.292969 0.00390625 20.8125 0.71875 C 19.546875 0.921875 19.246094 1.9375 18.351562 2.777344 C 16.21875 4.777344 13.996094 6.675781 11.800781 8.605469 C 9.601562 10.550781 7.449219 12.539062 5.390625 14.632812 C 3.980469 16.066406 2.539062 18.8125 0.742188 19.710938 C 0.4375 19.863281 0.277344 20.214844 0.265625 20.539062 C 0.207031 22.152344 0.0898438 23.75 -0.0820312 25.359375 C -0.175781 26.226562 -0.804688 28.21875 -0.535156 29.226562 C -0.34375 29.9375 0.550781 30.140625 1.066406 29.648438 C 5.472656 25.457031 9.304688 20.699219 13.890625 16.710938 C 13.542969 19.660156 12.601562 23.011719 14.128906 25.296875 C 14.5 25.855469 15.132812 25.882812 15.632812 25.492188 C 16.347656 24.933594 17.113281 24.648438 17.914062 24.425781 C 18.058594 25.386719 18.355469 26.296875 18.507812 27.308594 " fill-opacity="1" fill-rule="nonzero"/><path fill="#849948" d="M 42.582031 15.28125 C 42.375 14.992188 41.898438 14.910156 41.707031 15.28125 C 40.726562 17.167969 40.144531 19.09375 39.539062 21.128906 C 39.464844 21.371094 39.613281 21.519531 39.796875 21.550781 C 39.613281 21.613281 39.460938 21.796875 39.5 22.046875 C 40.097656 25.835938 41.53125 27.792969 44.558594 29.847656 C 45.871094 30.738281 47.261719 31.46875 48.765625 31.984375 C 51.167969 32.804688 52.859375 34.835938 54.785156 36.480469 C 55.222656 36.855469 55.917969 36.621094 55.929688 36.007812 C 55.976562 33.824219 56.230469 31.640625 56.078125 29.457031 C 55.964844 27.835938 55.054688 27.84375 53.695312 27.109375 C 51.808594 26.085938 50.046875 24.851562 48.160156 23.824219 C 47.492188 23.460938 46.839844 23.214844 46.140625 22.929688 C 45.589844 22.703125 47.289062 20.558594 47.453125 20.3125 C 47.652344 20.019531 47.484375 19.691406 47.242188 19.503906 C 45.570312 18.214844 43.839844 17.007812 42.582031 15.28125 " fill-opacity="1" fill-rule="nonzero"/><path fill="#849948" d="M 76.472656 43.324219 C 76.472656 43.324219 70.339844 41.492188 66.941406 40.480469 C 63.121094 39.34375 60.476562 40.503906 56.703125 41.640625 C 56.21875 41.785156 56.195312 42.371094 56.574219 42.644531 C 57.949219 43.632812 59.3125 44.636719 60.679688 45.628906 C 61.511719 46.230469 63.371094 48.058594 64.421875 48.058594 C 67.851562 48.058594 75.078125 47.539062 75.078125 47.539062 L 75.339844 47.3125 L 76.730469 43.964844 L 76.472656 43.324219 " fill-opacity="1" fill-rule="nonzero"/><path fill="#849948" d="M 36.722656 49.050781 C 37.832031 48.945312 38.953125 48.871094 40.050781 48.695312 C 40.21875 48.667969 40.414062 48.476562 40.4375 48.308594 C 40.648438 46.753906 40.847656 45.199219 41.085938 43.648438 C 41.304688 42.253906 41.421875 39.359375 42.617188 38.398438 C 42.839844 38.21875 42.871094 37.820312 42.722656 37.589844 C 41.214844 35.269531 39.953125 33.082031 39.960938 30.25 C 39.964844 29.6875 39.171875 29.269531 38.773438 29.757812 C 37.363281 31.503906 35.957031 33.25 34.613281 35.050781 C 33.585938 36.429688 32.296875 40.207031 30.445312 39.574219 C 25.320312 37.824219 21.835938 35.320312 21.390625 29.636719 C 21.363281 29.269531 21.105469 28.980469 20.714844 28.980469 C 20.605469 28.980469 20.5 28.980469 20.394531 28.980469 C 20.070312 28.980469 19.851562 29.167969 19.742188 29.457031 C 18.644531 32.28125 17.242188 34.308594 17.851562 37.3125 C 18.527344 40.632812 20.902344 42.859375 22.121094 45.855469 C 22.761719 47.433594 24.679688 47.699219 26.210938 48.125 C 29.445312 49.023438 33.050781 49.214844 36.386719 49.242188 C 36.539062 49.242188 36.648438 49.160156 36.722656 49.050781 " fill-opacity="1" fill-rule="nonzero"/><g clip-path="url(#ec79801696)"><path fill="#849948" d="M 72.101562 50.679688 C 72.082031 50.6875 72.0625 50.691406 72.042969 50.699219 C 68.804688 52.222656 65.847656 54.101562 63.214844 56.5 C 60.074219 53.949219 57.640625 50.746094 55.449219 47.359375 C 55.179688 46.949219 54.578125 46.707031 54.136719 47.015625 C 52.28125 48.304688 50.523438 49.722656 48.691406 51.039062 C 48.054688 50.347656 47.363281 49.730469 46.660156 49.085938 C 46.308594 48.757812 45.644531 48.667969 45.304688 49.085938 C 44.246094 50.382812 43.273438 51.699219 42.46875 53.171875 C 42.140625 53.769531 41.933594 54.429688 41.714844 55.066406 C 41.4375 55.894531 39.289062 56.304688 38.5625 56.609375 C 36.757812 57.359375 34.996094 58.214844 33.238281 59.070312 C 32.460938 59.445312 30.925781 59.96875 30.441406 60.792969 C 29.695312 62.0625 30.308594 64.941406 30.308594 66.371094 C 30.308594 67.132812 30.5625 67.367188 31.113281 67.929688 C 32.742188 69.605469 34.253906 71.40625 35.773438 73.179688 C 36.84375 74.425781 36.917969 74.773438 38.519531 74.800781 C 39.65625 74.820312 41.238281 75.152344 42.355469 74.933594 C 46.886719 74.046875 51.0625 72.191406 55.207031 70.207031 C 58.335938 68.703125 62.6875 67.621094 64.839844 64.804688 C 67.722656 61.035156 70.257812 57.003906 72.761719 52.972656 C 72.917969 52.71875 73.40625 52.019531 73.449219 51.910156 C 73.492188 51.800781 73.507812 51.679688 73.5 51.5625 C 73.53125 50.886719 72.714844 50.390625 72.101562 50.679688 " fill-opacity="1" fill-rule="nonzero"/></g></svg>